<svg xmlns="http://www.w3.org/2000/svg" viewBox="0 0 793 317" fill="currentColor">
  <path d="m37 92 0 0 m-28 -61 0 1 4 -2 -2 1 1 0 -2 -5 2 1 m353 279 -1 1 m-19 -12 1 0 m202 179 0 1 m16 -8 3 3 -2 3 -2 -2 -3 1 -1 -4 1 0 m-30 -13 1 3 4 1 -1 3 0 -4 -5 -1 2 -1 0 2 -2 -4 1 2 m119 175 0 0 m199 232 0 0 m467 110 0 0 m161 156 -2 1 0 -2 -5 -3 2 -1 0 2 m206 229 2 0 -9 -1 1 0 m313 273 0 0 m43 -23 0 0 m-24 1 0 0 m22 -4 1 1 m-28 -1 1 0 m22 -1 1 0 m-61 -1 0 0 m17 -18 0 0 m174 240 0 0 m26 -7 0 0 m285 243 -1 1 -1 -4 -2 2 0 -1 -4 -1 1 0 m236 156 -2 1 m12 -12 1 0 m2 -53 -1 0 4 0 -2 2 -1 -4 1 -1 -2 -1 1 -1 m-14 -13 -1 1 m-54 0 0 0 m44 -14 -1 -2 2 2 -1 3 m394 85 -3 2 5 3 -2 2 -1 -2 2 4 -1 -1 -2 4 3 -2 -2 3 -1 -3 -2 1 1 0 -2 1 1 0 m160 133 0 0 m5 -2 1 0 m-7 -6 1 1 m2 -2 0 0 m-2 -2 2 1 m-2 -8 0 0 m-6 0 0 0 m-1 0 0 1 m-6 -2 0 1 m11 -1 0 0 m-5 0 0 1 m1 -2 0 0 m-8 -1 0 0 m13 0 0 1 m7 -1 0 1 m366 190 1 -2 -1 3 m-5 7 2 -6 1 4 -1 0 m-6 -47 -1 1 3 0 -6 3 0 -1 0 -7 -1 0 6 -4 0 0 m269 179 -1 1 2 -1 -6 4 0 2 -3 -3 0 1 -3 2 -2 -2 -4 4 0 -4 0 0 -3 2 -2 -2 m388 71 0 -1 0 2 m-5 -5 2 1 m6 -7 -1 1 m3 -3 0 2 -4 -3 1 0 m-38 1 0 -1 3 2 -3 0 3 3 0 0 m148 210 0 0 m585 270 0 0 m-20 -3 1 0 m51 4 0 0 m-18 -5 -2 -2 2 1 -2 2 m-53 -7 -2 2 3 -3 1 1 m12 0 -2 1 m64 -2 -1 1 m12 -5 0 0 1 3 -3 2 0 -2 1 1 m3 -2 -1 0 3 0 m-57 2 0 1 m108 -15 0 1 m-37 -7 0 -2 -1 1 m34 -4 0 2 0 -3 0 0 m-31 3 -2 2 2 -6 0 1 m-77 -39 -1 0 m2 -2 1 0 m-5 2 2 -2 0 2 m-12 -4 0 0 m2 -2 0 0 m-13 -2 0 0 0 4 -3 -3 3 1 m48 -4 4 3 -5 -2 -1 1 -1 -2 0 2 3 -4 5 0 0 1 m534 170 -1 -2 0 1 m-11 -11 6 1 -9 1 0 0 m-8 -2 6 1 m51 -5 4 2 -6 0 3 -2 3 1 m-5 -3 -1 1 m-5 -8 0 2 m4 -8 2 3 -2 -2 1 0 m-7 4 -1 1 m12 -40 0 3 -3 2 3 -2 0 8 -1 1 -4 2 4 1 -5 -1 3 7 -2 -1 4 -4 0 0 m11 -4 0 -3 2 3 -1 4 0 0 m416 272 0 0 m-44 -1 0 0 m15 -4 1 0 m26 2 0 0 m-19 -3 1 0 m488 308 0 0 m-25 -1 1 0 m26 -5 0 1 m-60 -13 1 1 m85 -8 1 0 m-89 -2 0 0 m -2,-0 -0,0 -1,-0 0,-0 0,0 z  m-1 -3 0 0 m1 -1 0 0 m47 -3 1 0 m-50 0 0 0 m64 0 0 0 m-25 -2 0 0 m26 -1 0 0 m18 2 -1 0 m-7 -2 1 1 m12 -2 1 0 m-28 0 1 1 m756 272 -3 0 3 -2 0 0 m-5 -3 -3 2 0 0 -6 0 -1 0 3 -6 1 -1 5 -1 -1 2 m0 -27 0 0 m-40 -87 6 0 -6 0 11 1 2 1 m44 5 0 0 0 64 1 1 0 39 -1 0 -5 -4 1 -2 -2 1 -1 -2 5 0 -6 -2 2 -2 1 2 1 -3 -1 0 6 2 0 0 m-68 -14 -1 0 m10 -8 1 -1 2 3 -1 -3 -2 1 2 1 m664 200 3 1 m-58 -38 -4 -1 5 -1 -3 1 m-5 -15 0 1 m17 -5 1 0 m0 -2 -2 0 4 0 1 0 m-5 -4 2 -1 -1 1 m51 4 0 -1 4 0 -2 2 0 5 1 0 2 6 -1 -4 0 4 0 0 6 2 -2 3 1 -3 3 0 -4 0 1 -1 0 3 -1 -3 2 -1 -2 -3 1 1 3 -4 1 2 0 -2 -4 2 1 -1 -5 -2 3 -3 3 0 m-47 -13 1 0 m-23 3 0 0 -3 -3 0 0 m138 118 -2 0 m-10 -8 0 0 m7 -1 2 3 -3 -2 1 1 m-11 2 0 0 -1 -3 3 3 -1 1 m2 -9 0 3 -3 -3 0 1 m-15 -5 -1 0 m-17 -7 2 0 5 4 0 2 3 3 2 0 3 3 -9 5 4 -3 0 0 5 4 -3 2 2 1 -3 2 1 1 -4 -1 0 0 -1 -3 1 0 m518 103 -2 3 -4 1 5 -2 0 0 m5 -21 0 0 m3 -17 1 2 m19 -3 -1 -3 0 1 m1 -3 -1 1 m91 180 0 1 m-5 -4 0 0 m-7 -11 0 1 m-13 -21 0 1 m17 -32 -1 1 3 1 -1 -1 0 4 -3 -3 0 0 m447 175 1 -1 0 3 -3 -3 0 -1 m445 253 1 0 m-4 -4 0 0 m-3 -11 -1 3 m-11 -76 0 1 1 -2 5 2 -1 -1 -3 2 1 0 1 5 -3 -1 0 -4 1 0 m421 141 1 0 0 3 0 -5 0 -1 m148 210 0 0 m492 220 0 1 m-28 2 1 -2 0 3 0 0 m12 -14 1 4 -1 -2 1 1 m9 1 -1 -1 3 2 -1 2 1 -5 0 2 m-2 -12 1 1 m2 -49 0 0 m-34 -41 -1 0 6 -1 -4 2 -1 -1 2 4 -3 -1 1 -1 -5 -2 -1 2 -1 -3 2 1 m56 131 0 0 m-1 -4 1 0 m4 -3 0 0 m-19 -21 1 1 m17 -4 0 1 m-36 -12 2 -2 2 2 -1 0 m30 3 1 -3 0 3 4 3 0 -2 0 3 -2 -6 -2 -1 m270 269 0 0 m506 285 -1 1 3 -1 m48 -12 -1 1 m384 13 -1 1 m-11 1 3 -4 0 -1 3 2 -2 1 2 -2 1 3 -2 0 4 3 -4 1 3 3 -4 1 0 1 -3 -2 0 1 0 -6 -2 0 4 0 0 -1 4 -4 0 0 m9 -13 0 0 m-7 2 -1 0 m280 86 -1 0 0 -4 1 2 m70 -46 2 0 0 6 1 0 -3 0 1 -1 -4 1 0 -2 3 2 -2 -1 2 -5 -3 0 0 -2 1 1 1 -3 2 0 13 -3 1 -1 3 -4 2 2 -1 -5 1 3 1 -2 m405 47 2 1 m-60 -5 1 3 0 -1 m-3 0 1 5 -3 -2 4 -2 -2 2" />
</svg>