<?xml version="1.0" encoding="UTF-8"?>
<svg version="1.1" xmlns="http://www.w3.org/2000/svg" width="1552" height="574">
<path d="M0 0 C28.38 0 56.76 0 86 0 C86.33 52.8 86.66 105.6 87 160 C93.27 147.46 99.54 134.92 106 122 C111.125 112.25 111.125 112.25 113.3515625 108.078125 C117.5921373 100.03435942 121.58316675 91.86002201 125.63482666 83.72009277 C130.02721853 74.89916354 134.4599332 66.11263631 139.11108398 57.42456055 C141.84663132 52.27815822 144.47146148 47.08152886 147.06640625 41.86328125 C147.43373871 41.12508148 147.80107117 40.38688171 148.17953491 39.62631226 C150.01741389 35.92980332 151.8495055 32.23056093 153.67382812 28.52734375 C154.36708005 27.12885298 155.0604356 25.73041357 155.75390625 24.33203125 C156.04753555 23.73127274 156.34116486 23.13051422 156.64369202 22.5115509 C160.46591087 14.82565638 164.77574949 7.50977868 169 0 C197.38 0 225.76 0 255 0 C252.74973206 6.75080383 252.74973206 6.75080383 251.27929688 9.68432617 C250.95095856 10.34403915 250.62262024 11.00375214 250.28433228 11.68345642 C249.93269012 12.37959549 249.58104797 13.07573456 249.21875 13.79296875 C248.84930267 14.53176773 248.47985535 15.27056671 248.09921265 16.03175354 C246.9036691 18.41913301 245.70207423 20.80340303 244.5 23.1875 C243.66929808 24.84205437 242.8387322 26.49667704 242.00830078 28.15136719 C237.68298857 36.75569573 233.3087909 45.32829626 228.76757812 53.82104492 C224.32533903 62.17475474 220.15255826 70.66444674 215.93792725 79.13439941 C211.68086612 87.68593555 207.3676285 96.19440596 202.8671875 104.62109375 C198.40065473 113.03651476 194.19337705 121.58207381 189.94955444 130.11114502 C185.12448076 139.80422839 180.21527524 149.44110552 175.11328125 158.9921875 C172.670721 163.62447367 170.34197249 168.31605502 168 173 C197.37 173 226.74 173 257 173 C257 305 257 437 257 573 C228.29 573 199.58 573 170 573 C170 469.71 170 366.42 170 260 C142.28 260 114.56 260 86 260 C86 363.29 86 466.58 86 573 C57.62 573 29.24 573 0 573 C0 383.91 0 194.82 0 0 Z " fill="#0E6124" transform="translate(0,0)"/>
<path d="M0 0 C28.71 0 57.42 0 87 0 C87 189.09 87 378.18 87 573 C10.44 573 -66.12 573 -145 573 C-145.80662698 495.81476041 -145.80662698 495.81476041 -145.9765625 463.3359375 C-146.01570715 455.9046134 -146.05611314 448.47329779 -146.09863281 441.04199219 C-146.10390779 440.11087655 -146.10918276 439.17976092 -146.11461759 438.22042966 C-146.20109435 423.27919102 -146.3584761 408.33952598 -146.54305592 393.39921373 C-146.73152995 378.01287022 -146.84147453 362.62733779 -146.8817699 347.23988771 C-146.9065135 338.61867974 -146.96544725 330.00075159 -147.11460114 321.38072205 C-148.24836254 253.85996619 -148.24836254 253.85996619 -127.65393829 223.11882019 C-119.9489841 211.47225718 -114.11324427 198.37620355 -107.9375 185.875 C-106.82342444 183.62150018 -105.70763998 181.36884409 -104.58984375 179.1171875 C-104.11409912 178.15409668 -103.63835449 177.19100586 -103.14819336 176.19873047 C-102 174 -102 174 -101 173 C-97.86436909 172.90464945 -94.75089396 172.87450427 -91.61499023 172.88647461 C-90.61373895 172.88635407 -89.61248766 172.88623354 -88.58089542 172.88610935 C-85.32343933 172.88685878 -82.06603968 172.89448836 -78.80859375 172.90234375 C-76.80407743 172.90381308 -74.79956073 172.90483384 -72.79504395 172.90539551 C-65.34252347 172.91064946 -57.89001119 172.92461053 -50.4375 172.9375 C-33.793125 172.958125 -17.14875 172.97875 0 173 C0 115.91 0 58.82 0 0 Z M-58 260 C-58 334.91 -58 409.82 -58 487 C-38.86 487 -19.72 487 0 487 C0 412.09 0 337.18 0 260 C-19.14 260 -38.28 260 -58 260 Z " fill="#0E6124" transform="translate(893,0)"/>
<path d="M0 0 C0.69725976 0.00291266 1.39451952 0.00582533 2.11290836 0.00882626 C2.84701939 0.00797024 3.58113041 0.00711422 4.33748722 0.00623226 C6.82372247 0.00456716 9.30989147 0.01011668 11.79612064 0.01555538 C13.59845795 0.01586148 15.40079538 0.01572864 17.20313263 0.01519012 C22.0471143 0.01496357 26.89107147 0.02077609 31.73504734 0.02780056 C36.27383855 0.03347876 40.81262367 0.03376277 45.3514185 0.03447628 C58.64150152 0.03973192 71.93157994 0.05369295 85.22165775 0.06658077 C114.90103275 0.08720577 144.58040775 0.10783077 175.15915775 0.12908077 C175.15915775 88.23908077 175.15915775 176.34908077 175.15915775 267.12908077 C129.94915775 267.12908077 84.73915775 267.12908077 38.15915775 267.12908077 C38.15915775 282.63908077 38.15915775 298.14908077 38.15915775 314.12908077 C83.36915775 314.12908077 128.57915775 314.12908077 175.15915775 314.12908077 C175.15915775 342.50908077 175.15915775 370.88908077 175.15915775 400.12908077 C101.23915775 400.12908077 27.31915775 400.12908077 -48.84084225 400.12908077 C-49.72813193 323.10516658 -49.72813193 323.10516658 -49.915061 290.66033077 C-49.95811833 283.23714278 -50.00256441 275.81396508 -50.04933834 268.39079952 C-50.05514081 267.46073888 -50.06094329 266.53067824 -50.06692159 265.57243395 C-50.16197536 250.65957847 -50.33505242 235.74863599 -50.53820376 220.83690569 C-50.74572905 205.47316445 -50.86650546 190.11040717 -50.91078913 174.74532247 C-50.9379747 166.13931762 -51.00255634 157.53729461 -51.1669035 148.93272305 C-51.87172512 110.90869406 -51.20154231 79.63437942 -29.6808424 46.62002468 C-22.40970225 35.3708232 -16.69275774 23.00763601 -10.77834225 11.00408077 C-9.8517683 9.12558201 -8.92348343 7.24792583 -7.993186 5.37126827 C-7.60123043 4.57575558 -7.20927486 3.78024288 -6.80544186 2.96062374 C-5.03917092 -0.39310051 -3.67668549 0.01163351 0 0 Z M38.15915775 87.12908077 C38.15915775 118.14908077 38.15915775 149.16908077 38.15915775 181.12908077 C54.65915775 181.12908077 71.15915775 181.12908077 88.15915775 181.12908077 C88.15915775 150.10908077 88.15915775 119.08908077 88.15915775 87.12908077 C71.65915775 87.12908077 55.15915775 87.12908077 38.15915775 87.12908077 Z " fill="#0E6124" transform="translate(1086.8408422470093,172.8709192276001)"/>
<path d="M0 0 C62.04 0 124.08 0 188 0 C188 132 188 264 188 400 C159.29 400 130.58 400 101 400 C101 296.71 101 193.42 101 87 C81.86 87 62.72 87 43 87 C43 190.29 43 293.58 43 400 C14.29 400 -14.42 400 -44 400 C-44.42046772 360.64490243 -44.77065282 321.29195786 -44.97024126 281.93524965 C-44.99399893 277.26753879 -45.01859161 272.59983268 -45.04370117 267.93212891 C-45.04868507 267.00304366 -45.05366897 266.07395842 -45.05880389 265.11671908 C-45.14102524 250.1586985 -45.29057086 235.20209419 -45.46590313 220.24490814 C-45.64486573 204.84726431 -45.74938299 189.45035154 -45.7876814 174.05171072 C-45.81120183 165.42288939 -45.867279 156.79702234 -46.00887108 148.16926193 C-47.09535352 80.0061658 -47.09535352 80.0061658 -27.18625832 51.22557449 C-24.26625746 46.91744667 -21.93486806 42.40313649 -19.625 37.75 C-18.89233568 36.36749636 -18.15597398 34.98693832 -17.4140625 33.609375 C-13.5603282 26.32751295 -9.94018379 18.92241318 -6.28759766 11.53808594 C-5.49554932 9.9414209 -5.49554932 9.9414209 -4.6875 8.3125 C-4.21699219 7.35988281 -3.74648438 6.40726563 -3.26171875 5.42578125 C-2 3 -2 3 0 0 Z " fill="#0E6124" transform="translate(502,173)"/>
<path d="M0 0 C59.4 0 118.8 0 180 0 C180 132 180 264 180 400 C151.29 400 122.58 400 93 400 C93 296.71 93 193.42 93 87 C74.52 87 56.04 87 37 87 C37 190.29 37 293.58 37 400 C8.29 400 -20.42 400 -50 400 C-50.59893207 362.44576461 -51.09597872 324.89615177 -51.3787639 287.33848216 C-51.41251977 282.8716425 -51.44746775 278.40481291 -51.4831543 273.93798828 C-51.49023668 273.04898738 -51.49731906 272.15998649 -51.50461606 271.24404617 C-51.62106309 256.98142998 -51.83333313 242.72185136 -52.08312549 228.46101777 C-52.33858268 213.75044653 -52.48619472 199.04142811 -52.54038936 184.32873118 C-52.57363325 176.09582507 -52.65196656 167.86921768 -52.85471153 159.63859177 C-53.87976768 116.76004471 -49.05825438 86.50303627 -26.30002785 49.45329666 C-23.09761499 44.23032873 -20.17627982 38.89329868 -17.35038757 33.45883179 C-16.95705886 32.70271878 -16.56373014 31.94660577 -16.15848237 31.16758025 C-12.85279242 24.76961052 -9.62409026 18.33304311 -6.4375 11.875 C-5.41717517 9.80900066 -4.39514052 7.74384453 -3.37109375 5.6796875 C-2.93724365 4.80038574 -2.50339355 3.92108398 -2.05639648 3.01513672 C-1 1 -1 1 0 0 Z " fill="#0E6124" transform="translate(1372,173)"/>
<path d="M0 0 C28.71 0 57.42 0 87 0 C87 132.33 87 264.66 87 401 C58.29 401 29.58 401 0 401 C0 268.67 0 136.34 0 0 Z " fill="#0E6124" transform="translate(313,173)"/>
<path d="M0 0 C1.20085236 0.00539291 1.20085236 0.00539291 2.42596436 0.01089478 C3.26491745 0.01074875 4.10387054 0.01060272 4.96824646 0.01045227 C7.75487816 0.01115167 10.54144388 0.01894531 13.32806396 0.02676392 C15.25477563 0.028628 17.18148777 0.03005195 19.10820007 0.03105164 C24.18978169 0.03487758 29.27133491 0.04470851 34.35290527 0.05575562 C39.53407405 0.0659681 44.7152474 0.07054891 49.89642334 0.07559204 C60.07026397 0.08633071 70.24408348 0.10340804 80.41790771 0.12442017 C79.83789487 3.61718177 78.94616487 6.42047459 77.32342529 9.56216431 C76.88769699 10.41337357 76.45196869 11.26458282 76.0030365 12.1415863 C75.52763931 13.05502304 75.05224213 13.96845978 74.56243896 14.90957642 C74.06879349 15.87042648 73.57514801 16.83127655 73.06654358 17.82124329 C71.45995468 20.94597879 69.84513397 24.06638319 68.23040771 27.18692017 C66.57255813 30.40705759 64.91696169 33.62834588 63.26165771 36.84979248 C62.16693002 38.98023317 61.07155425 41.11034097 59.9755249 43.2401123 C55.76829869 51.42083885 51.63176881 59.63403798 47.54290771 67.87442017 C42.32101208 78.37546736 36.94303405 88.78005904 31.41790771 99.12442017 C28.77790771 104.07442017 26.13790771 109.02442017 23.41790771 114.12442017 C-5.29209229 114.12442017 -34.00209229 114.12442017 -63.58209229 114.12442017 C-60.94209229 108.84442017 -58.30209229 103.56442017 -55.58209229 98.12442017 C-53.57944948 94.10776572 -53.57944948 94.10776572 -51.57797241 90.0905304 C-49.76314501 86.44694085 -47.94575387 82.80463129 -46.128479 79.16226196 C-45.1837459 77.2677654 -44.23973096 75.37291054 -43.29644775 73.47769165 C-38.04785261 62.93401328 -32.73073284 52.43795887 -27.21336365 42.0322113 C-22.83731228 33.7598319 -18.67359995 25.38489091 -14.51959229 16.99942017 C-13.03100892 13.99566594 -11.53974036 10.99326591 -10.04693604 7.99160767 C-9.54395241 6.9731929 -9.54395241 6.9731929 -9.0308075 5.9342041 C-6.35491074 0.5537123 -6.08359102 0.01153516 0 0 Z " fill="#0E6124" transform="translate(376.58209228515625,-0.124420166015625)"/>
</svg>
